# xmcd CD database file
#
# Track frame offsets:
#	150
#	13705
#	29782
#	46762
#	58089
#	74275
#	87086
#	105634
#	120695
#	136003
#
# Disc length: 1982 seconds
#
# Revision: 0
# Processed by: cddbd v1.5.1PL0 Copyright (c) Steve Scherf et al.
# Submitted via: CDex 1.40Beta9
#
DISCID=8207bc0a
DTITLE=Mike Denver - Love To Live
DYEAR=2004
DGENRE=Country
TTITLE0=Darlin' Lets Turn Back The Tears. 
TTITLE1=Don't Make Me Dream.
TTITLE2=The Comfort of Her Wings.
TTITLE3=Once a Day.
TTITLE4=Forgiving You is Easy.
TTITLE5=I'm Just Me.
TTITLE6=Seven Spanish Angels.
TTITLE7=Blowing in the Wind.
TTITLE8=Soon as I Can.
TTITLE9=The Party Over (turn out the lights).
EXTD=YEAR: 2004 ID3G: 2
EXTT0=
EXTT1=
EXTT2=
EXTT3=
EXTT4=
EXTT5=
EXTT6=
EXTT7=
EXTT8=
EXTT9=
PLAYORDER=
